STARTFONT 2.1
FONT -Monotype-Times New Roman-Regular-R-Normal--25-180-100-100-P-115-iso8859-4
SIZE 18 100 100
FONTBOUNDINGBOX 29 29 -4 -6

STARTPROPERTIES 24
FOUNDRY "Monotype"
FAMILY_NAME "Times New Roman"
WEIGHT_NAME "Regular"
SLANT "R"
SETWIDTH_NAME "Normal"
ADD_STYLE_NAME ""
PIXEL_SIZE 25
POINT_SIZE 180
RESOLUTION_X 100
RESOLUTION_Y 100
SPACING "P"
AVERAGE_WIDTH 115
CHARSET_REGISTRY "iso8859"
CHARSET_ENCODING "4"
FACE_NAME "Times New Roman ISO Latin4"
_DEC_DEVICE_FONTNAMES "PS=timesnewroman-lat4"
COPYRIGHT "Copyright (c) 1993 Monotype Typography Ltd."
CAP_HEIGHT 19
X_HEIGHT 12
WEIGHT 10
QUAD_WIDTH 14
DEFAULT_CHAR 160
FONT_DESCENT 6
FONT_ASCENT 23
ENDPROPERTIES

CHARS 191

STARTCHAR space
ENCODING 32
SWIDTH 250 0
DWIDTH 6 0
BBX 0 0 0 0
BITMAP
ENDCHAR

STARTCHAR exclam
ENCODING 33
SWIDTH 333 0
DWIDTH 8 0
BBX 3 17 3 0
BITMAP
E0
E0
E0
E0
E0
40
40
40
40
40
40
40
00
00
40
E0
40
ENDCHAR

STARTCHAR quotedbl
ENCODING 34
SWIDTH 408 0
DWIDTH 10 0
BBX 6 7 2 10
BITMAP
CC
CC
CC
CC
CC
C4
44
ENDCHAR

STARTCHAR numbersign
ENCODING 35
SWIDTH 500 0
DWIDTH 13 0
BBX 12 18 0 0
BITMAP
0420
0420
0C20
0860
0840
0840
FFF0
1040
10C0
1080
1080
FFF0
2080
2100
2100
2100
2100
4100
ENDCHAR

STARTCHAR dollar
ENCODING 36
SWIDTH 500 0
DWIDTH 13 0
BBX 10 20 1 -2
BITMAP
0800
1E00
6980
C880
C880
C880
E800
7800
3800
1E00
0F00
0B80
09C0
08C0
88C0
88C0
C980
FB00
0800
0800
ENDCHAR

STARTCHAR percent
ENCODING 37
SWIDTH 833 0
DWIDTH 21 0
BBX 19 17 1 0
BITMAP
380100
440200
C60400
C60400
C60800
C61000
C63000
642000
384380
008440
008C60
010C60
020C60
020C60
040C60
080640
180380
ENDCHAR

STARTCHAR ampersand
ENCODING 38
SWIDTH 778 0
DWIDTH 19 0
BBX 17 17 1 0
BITMAP
03C000
066000
0C2000
0C2000
0C6000
0EC000
079F80
070600
1B0C00
338800
618800
61D000
E0E000
E07080
70F880
7F3F80
1C0E00
ENDCHAR

STARTCHAR quoteright
ENCODING 39
SWIDTH 333 0
DWIDTH 8 0
BBX 4 7 2 10
BITMAP
60
F0
70
10
10
20
40
ENDCHAR

STARTCHAR parenleft
ENCODING 40
SWIDTH 333 0
DWIDTH 8 0
BBX 7 22 1 -5
BITMAP
06
08
10
30
60
60
60
C0
C0
C0
C0
C0
C0
C0
C0
60
60
60
30
10
08
06
ENDCHAR

STARTCHAR parenright
ENCODING 41
SWIDTH 333 0
DWIDTH 8 0
BBX 7 22 0 -5
BITMAP
C0
20
10
08
0C
0C
0C
06
06
06
06
06
06
06
06
0C
0C
0C
18
10
20
C0
ENDCHAR

STARTCHAR asterisk
ENCODING 42
SWIDTH 500 0
DWIDTH 13 0
BBX 9 10 2 7
BITMAP
1800
1800
DB80
EF00
1800
6E00
DB80
9900
1800
0800
ENDCHAR

STARTCHAR plus
ENCODING 43
SWIDTH 564 0
DWIDTH 14 0
BBX 13 13 1 2
BITMAP
0200
0200
0200
0200
0200
0200
FFF8
0200
0200
0200
0200
0200
0200
ENDCHAR

STARTCHAR comma
ENCODING 44
SWIDTH 250 0
DWIDTH 6 0
BBX 4 7 1 -4
BITMAP
60
F0
70
10
20
60
80
ENDCHAR

STARTCHAR minus
ENCODING 45
SWIDTH 564 0
DWIDTH 14 0
BBX 13 1 1 8
BITMAP
FFF8
ENDCHAR

STARTCHAR period
ENCODING 46
SWIDTH 250 0
DWIDTH 6 0
BBX 3 3 2 0
BITMAP
40
E0
40
ENDCHAR

STARTCHAR slash
ENCODING 47
SWIDTH 278 0
DWIDTH 7 0
BBX 7 17 0 0
BITMAP
02
04
04
04
08
08
08
10
10
10
20
20
20
40
40
40
80
ENDCHAR

STARTCHAR zero
ENCODING 48
SWIDTH 500 0
DWIDTH 13 0
BBX 10 17 1 0
BITMAP
1E00
3300
6180
6180
E0C0
C0C0
C0C0
C0C0
C0C0
C0C0
C0C0
C0C0
E1C0
6180
6180
3300
0C00
ENDCHAR

STARTCHAR one
ENCODING 49
SWIDTH 500 0
DWIDTH 13 0
BBX 6 17 3 0
BITMAP
30
F0
30
30
30
30
30
30
30
30
30
30
30
30
30
30
FC
ENDCHAR

STARTCHAR two
ENCODING 50
SWIDTH 500 0
DWIDTH 13 0
BBX 11 17 0 0
BITMAP
1E00
3F80
61C0
41C0
40C0
00C0
00C0
0080
0180
0100
0200
0400
0800
1000
2020
7FC0
FFC0
ENDCHAR

STARTCHAR three
ENCODING 51
SWIDTH 500 0
DWIDTH 13 0
BBX 9 17 2 0
BITMAP
3C00
7E00
8700
8300
0300
0200
0400
0E00
3F00
0700
0380
0180
0180
0100
0100
C600
F800
ENDCHAR

STARTCHAR four
ENCODING 52
SWIDTH 500 0
DWIDTH 13 0
BBX 11 17 0 0
BITMAP
0080
0180
0380
0780
0580
0980
1180
1180
2180
4180
4180
FFE0
FFE0
0180
0180
0180
0180
ENDCHAR

STARTCHAR five
ENCODING 53
SWIDTH 500 0
DWIDTH 13 0
BBX 10 17 1 0
BITMAP
0FC0
1F80
1000
2000
3000
7E00
7F00
0780
0180
00C0
00C0
00C0
00C0
0080
0180
E300
7C00
ENDCHAR

STARTCHAR six
ENCODING 54
SWIDTH 500 0
DWIDTH 13 0
BBX 10 17 1 0
BITMAP
07C0
0C00
1800
3000
7000
6000
FF00
E380
C1C0
C0C0
C0C0
C0C0
C0C0
60C0
6180
3100
1E00
ENDCHAR

STARTCHAR seven
ENCODING 55
SWIDTH 500 0
DWIDTH 13 0
BBX 10 17 1 0
BITMAP
7FC0
7FC0
C0C0
8080
0080
0180
0100
0100
0300
0200
0200
0600
0400
0400
0C00
0800
0800
ENDCHAR

STARTCHAR eight
ENCODING 56
SWIDTH 500 0
DWIDTH 13 0
BBX 9 17 2 0
BITMAP
3E00
6300
C180
C180
C180
6100
7200
3C00
1E00
2F00
4780
C380
C180
C180
4100
6300
1C00
ENDCHAR

STARTCHAR nine
ENCODING 57
SWIDTH 500 0
DWIDTH 13 0
BBX 10 17 1 0
BITMAP
1E00
2300
6180
C180
C0C0
C0C0
C0C0
E0C0
E0C0
73C0
3D80
0180
0380
0300
0600
0C00
F000
ENDCHAR

STARTCHAR colon
ENCODING 58
SWIDTH 278 0
DWIDTH 7 0
BBX 3 12 2 0
BITMAP
40
E0
40
00
00
00
00
00
00
40
E0
40
ENDCHAR

STARTCHAR semicolon
ENCODING 59
SWIDTH 278 0
DWIDTH 7 0
BBX 4 16 1 -4
BITMAP
20
70
20
00
00
00
00
00
00
60
F0
70
10
20
60
80
ENDCHAR

STARTCHAR less
ENCODING 60
SWIDTH 564 0
DWIDTH 14 0
BBX 13 12 1 2
BITMAP
0018
00E0
0380
0C00
7000
C000
6000
1C00
0700
00C0
0030
0008
ENDCHAR

STARTCHAR equal
ENCODING 61
SWIDTH 564 0
DWIDTH 14 0
BBX 13 5 1 6
BITMAP
FFF8
0000
0000
0000
FFF8
ENDCHAR

STARTCHAR greater
ENCODING 62
SWIDTH 564 0
DWIDTH 14 0
BBX 13 12 1 2
BITMAP
8000
7000
0C00
0300
00E0
0018
0060
0180
0E00
3800
C000
8000
ENDCHAR

STARTCHAR question
ENCODING 63
SWIDTH 444 0
DWIDTH 11 0
BBX 9 17 1 0
BITMAP
3E00
4300
C180
C180
E180
0180
0300
0200
0600
0400
0800
0800
0800
0000
0800
1C00
0800
ENDCHAR

STARTCHAR at
ENCODING 64
SWIDTH 921 0
DWIDTH 23 0
BBX 22 23 1 -6
BITMAP
00FF00
0300C0
0C0020
180010
300010
201988
606708
40C308
C18308
830608
830608
860610
860C10
861420
862C20
47CCC4
438708
600008
200010
100020
0C0040
030380
00FC00
ENDCHAR

STARTCHAR A
ENCODING 65
SWIDTH 722 0
DWIDTH 18 0
BBX 18 17 0 0
BITMAP
004000
00C000
00C000
01E000
016000
037000
023000
023000
043800
001800
0FFC00
080C00
100E00
100600
300600
300700
F81FC0
ENDCHAR

STARTCHAR B
ENCODING 66
SWIDTH 667 0
DWIDTH 17 0
BBX 15 17 1 0
BITMAP
FFE0
3070
3018
301C
301C
301C
3018
3078
3FE0
3038
301C
300E
300E
300E
301C
3038
FFF0
ENDCHAR

STARTCHAR C
ENCODING 67
SWIDTH 667 0
DWIDTH 17 0
BBX 15 17 1 0
BITMAP
03E4
0C1C
1804
3006
7002
6002
E000
E000
E000
E000
E000
6000
7000
3002
3804
1E18
07E0
ENDCHAR

STARTCHAR D
ENCODING 68
SWIDTH 722 0
DWIDTH 18 0
BBX 16 17 1 0
BITMAP
FFE0
3078
301C
300E
300E
3007
3007
3007
3007
3007
3007
3006
300E
300C
301C
3070
FFC0
ENDCHAR

STARTCHAR E
ENCODING 69
SWIDTH 611 0
DWIDTH 15 0
BBX 14 17 1 0
BITMAP
FFF0
3010
3010
3010
3000
3020
3020
3020
3FE0
3020
3020
3000
3000
3004
3008
3018
FFF0
ENDCHAR

STARTCHAR F
ENCODING 70
SWIDTH 556 0
DWIDTH 14 0
BBX 12 17 1 0
BITMAP
FFF0
3030
3010
3010
3000
3040
3040
3040
3FC0
3040
3040
3000
3000
3000
3000
3000
FE00
ENDCHAR

STARTCHAR G
ENCODING 71
SWIDTH 722 0
DWIDTH 18 0
BBX 17 17 1 0
BITMAP
03F200
0C0E00
180600
300200
700200
600000
E00000
E03F80
E00600
E00600
E00600
700600
700600
380600
1C0600
0E0E00
03F800
ENDCHAR

STARTCHAR H
ENCODING 72
SWIDTH 722 0
DWIDTH 18 0
BBX 17 17 1 0
BITMAP
FE3F80
300C00
300C00
300C00
300C00
300C00
300C00
300C00
3FFC00
300C00
300C00
300C00
300C00
300C00
300C00
300C00
FE3F80
ENDCHAR

STARTCHAR I
ENCODING 73
SWIDTH 333 0
DWIDTH 8 0
BBX 7 17 1 0
BITMAP
FE
30
30
30
30
30
30
30
30
30
30
30
30
30
30
30
FE
ENDCHAR

STARTCHAR J
ENCODING 74
SWIDTH 389 0
DWIDTH 10 0
BBX 9 17 1 0
BITMAP
3F80
0C00
0C00
0C00
0C00
0C00
0C00
0C00
0C00
0C00
0C00
0C00
0C00
0C00
CC00
C800
F000
ENDCHAR

STARTCHAR K
ENCODING 75
SWIDTH 722 0
DWIDTH 18 0
BBX 17 17 1 0
BITMAP
FE7E00
301800
303000
306000
30C000
318000
330000
360000
360000
370000
338000
31C000
30E000
307000
303C00
301E00
FE7F80
ENDCHAR

STARTCHAR L
ENCODING 76
SWIDTH 611 0
DWIDTH 15 0
BBX 14 17 1 0
BITMAP
FE00
3800
3000
3000
3000
3000
3000
3000
3000
3000
3000
3000
3004
3004
3008
3818
FFF0
ENDCHAR

STARTCHAR M
ENCODING 77
SWIDTH 889 0
DWIDTH 22 0
BBX 21 17 1 0
BITMAP
F000F8
3801C0
3801C0
2C0340
2C02C0
2E02C0
2604C0
2704C0
2308C0
2308C0
2390C0
2190C0
21F0C0
20E0C0
20E0C0
2040C0
F843F8
ENDCHAR

STARTCHAR N
ENCODING 78
SWIDTH 722 0
DWIDTH 18 0
BBX 17 17 0 0
BITMAP
F00F80
380200
1C0200
1E0200
170200
170200
138200
11C200
10E200
107200
107200
103A00
101E00
100E00
100600
100600
7C0200
ENDCHAR

STARTCHAR O
ENCODING 79
SWIDTH 722 0
DWIDTH 18 0
BBX 16 17 1 0
BITMAP
07E0
1C38
381C
300E
6006
6006
E007
E007
E007
E007
E007
6006
7006
300C
381C
0C38
03E0
ENDCHAR

STARTCHAR P
ENCODING 80
SWIDTH 556 0
DWIDTH 14 0
BBX 12 17 1 0
BITMAP
FF80
30E0
3060
3070
3070
3070
3060
30E0
3F80
3000
3000
3000
3000
3000
3000
3000
FC00
ENDCHAR

STARTCHAR Q
ENCODING 81
SWIDTH 722 0
DWIDTH 18 0
BBX 16 22 1 -5
BITMAP
07E0
1C38
381C
300C
6006
6006
E007
E007
E007
E007
E007
6007
6006
700E
300C
1818
07E0
03C0
01E0
0070
0038
0007
ENDCHAR

STARTCHAR R
ENCODING 82
SWIDTH 667 0
DWIDTH 17 0
BBX 16 17 1 0
BITMAP
FFC0
3070
3070
3038
3038
3038
3070
30E0
3F80
3180
31C0
30E0
3070
3030
3038
381C
FE0F
ENDCHAR

STARTCHAR S
ENCODING 83
SWIDTH 556 0
DWIDTH 14 0
BBX 11 17 2 0
BITMAP
1E40
61C0
C0C0
C040
C040
E040
7800
3E00
1F80
07C0
01E0
80E0
8060
8060
C060
E0C0
9F00
ENDCHAR

STARTCHAR T
ENCODING 84
SWIDTH 611 0
DWIDTH 15 0
BBX 14 17 1 0
BITMAP
FFFC
C30C
8304
8304
0300
0300
0300
0300
0300
0300
0300
0300
0300
0300
0300
0300
0FE0
ENDCHAR

STARTCHAR U
ENCODING 85
SWIDTH 722 0
DWIDTH 18 0
BBX 17 17 1 0
BITMAP
FE0F80
300200
300200
300200
300200
300200
300200
300200
300200
300200
300200
300200
300200
380600
180400
0C1800
07F000
ENDCHAR

STARTCHAR V
ENCODING 86
SWIDTH 722 0
DWIDTH 18 0
BBX 18 17 0 0
BITMAP
FE07C0
380300
180300
1C0200
0C0200
0E0400
060400
070800
070800
031800
039000
019000
01E000
00E000
00C000
004000
004000
ENDCHAR

STARTCHAR W
ENCODING 87
SWIDTH 944 0
DWIDTH 24 0
BBX 23 17 0 0
BITMAP
FCFC3E
387808
383808
183810
181810
1C1C10
0C3420
0C2C20
0E2E20
064640
074640
074740
038380
038380
018180
010100
010100
ENDCHAR

STARTCHAR X
ENCODING 88
SWIDTH 722 0
DWIDTH 18 0
BBX 18 17 0 0
BITMAP
7F0F80
1E0600
0E0400
070C00
071800
039000
01E000
01C000
00E000
01F000
017000
023800
041C00
0C1C00
180E00
380F00
FC1FC0
ENDCHAR

STARTCHAR Y
ENCODING 89
SWIDTH 722 0
DWIDTH 18 0
BBX 18 17 0 0
BITMAP
FE0FC0
3C0300
1C0600
0C0400
0E0C00
070800
031000
03B000
01E000
00C000
00C000
00C000
00C000
00C000
00C000
00C000
03F800
ENDCHAR

STARTCHAR Z
ENCODING 90
SWIDTH 611 0
DWIDTH 15 0
BBX 15 17 0 0
BITMAP
3FFC
2018
2038
2070
00E0
00E0
01C0
0380
0380
0700
0E00
0E00
1C02
3802
3004
600C
FFFC
ENDCHAR

STARTCHAR bracketleft
ENCODING 91
SWIDTH 333 0
DWIDTH 8 0
BBX 5 22 2 -5
BITMAP
F8
C0
C0
C0
C0
C0
C0
C0
C0
C0
C0
C0
C0
C0
C0
C0
C0
C0
C0
C0
C0
F8
ENDCHAR

STARTCHAR backslash
ENCODING 92
SWIDTH 278 0
DWIDTH 7 0
BBX 7 17 0 0
BITMAP
80
40
40
40
20
20
20
10
10
10
08
08
08
04
04
04
02
ENDCHAR

STARTCHAR bracketright
ENCODING 93
SWIDTH 333 0
DWIDTH 8 0
BBX 5 22 1 -5
BITMAP
F8
18
18
18
18
18
18
18
18
18
18
18
18
18
18
18
18
18
18
18
18
F8
ENDCHAR

STARTCHAR asciicircum
ENCODING 94
SWIDTH 469 0
DWIDTH 12 0
BBX 11 9 0 8
BITMAP
0400
0600
0B00
0900
1080
3080
2040
4040
C020
ENDCHAR

STARTCHAR underscore
ENCODING 95
SWIDTH 500 0
DWIDTH 13 0
BBX 13 1 0 -3
BITMAP
FFF8
ENDCHAR

STARTCHAR quoteleft
ENCODING 96
SWIDTH 333 0
DWIDTH 8 0
BBX 4 7 2 10
BITMAP
20
40
80
80
E0
F0
60
ENDCHAR

STARTCHAR a
ENCODING 97
SWIDTH 444 0
DWIDTH 11 0
BBX 10 12 1 0
BITMAP
3C00
6700
C300
C300
0700
1B00
2300
4300
C300
C340
EFC0
7100
ENDCHAR

STARTCHAR b
ENCODING 98
SWIDTH 500 0
DWIDTH 13 0
BBX 12 18 0 0
BITMAP
1000
F000
3000
3000
3000
3000
3380
37E0
38E0
3070
3030
3030
3030
3030
3020
3060
38C0
0F00
ENDCHAR

STARTCHAR c
ENCODING 99
SWIDTH 444 0
DWIDTH 11 0
BBX 9 12 1 0
BITMAP
1E00
2380
6180
C180
C000
C000
C000
E080
E080
7180
3F00
1E00
ENDCHAR

STARTCHAR d
ENCODING 100
SWIDTH 500 0
DWIDTH 13 0
BBX 12 18 1 0
BITMAP
0040
03C0
00C0
00C0
00C0
00C0
1EC0
31C0
60C0
60C0
C0C0
C0C0
C0C0
C0C0
E0C0
60C0
79F0
3EC0
ENDCHAR

STARTCHAR e
ENCODING 101
SWIDTH 444 0
DWIDTH 11 0
BBX 9 12 1 0
BITMAP
1E00
2300
4380
C180
FF80
C000
C000
C080
E080
7180
7F00
1E00
ENDCHAR

STARTCHAR f
ENCODING 102
SWIDTH 333 0
DWIDTH 8 0
BBX 10 17 1 0
BITMAP
0F80
11C0
3080
3000
3000
FE00
3000
3000
3000
3000
3000
3000
3000
3000
3000
3000
FC00
ENDCHAR

STARTCHAR g
ENCODING 103
SWIDTH 500 0
DWIDTH 13 0
BBX 11 17 1 -5
BITMAP
1F00
31E0
60C0
60C0
60C0
70C0
3180
1F00
2000
7000
7FC0
2FE0
4020
C020
E040
7F80
1E00
ENDCHAR

STARTCHAR h
ENCODING 104
SWIDTH 500 0
DWIDTH 13 0
BBX 13 18 0 0
BITMAP
1000
F000
3000
3000
3000
3000
3180
37C0
38E0
3060
3060
3060
3060
3060
3060
3060
3060
FDF8
ENDCHAR

STARTCHAR i
ENCODING 105
SWIDTH 278 0
DWIDTH 7 0
BBX 6 17 1 0
BITMAP
30
30
10
00
00
00
70
B0
30
30
30
30
30
30
30
30
FC
ENDCHAR

STARTCHAR j
ENCODING 106
SWIDTH 278 0
DWIDTH 7 0
BBX 7 23 -2 -6
BITMAP
06
06
06
00
00
00
06
1E
06
06
06
06
06
06
06
06
06
06
06
06
06
E4
78
ENDCHAR

STARTCHAR k
ENCODING 107
SWIDTH 500 0
DWIDTH 13 0
BBX 13 18 0 0
BITMAP
3000
F000
3000
3000
3000
3000
31F0
3080
3100
3200
3400
3600
3600
3300
3380
31C0
30E0
FDF8
ENDCHAR

STARTCHAR l
ENCODING 108
SWIDTH 278 0
DWIDTH 7 0
BBX 6 18 1 0
BITMAP
10
F0
30
30
30
30
30
30
30
30
30
30
30
30
30
30
30
FC
ENDCHAR

STARTCHAR m
ENCODING 109
SWIDTH 778 0
DWIDTH 19 0
BBX 20 12 0 0
BITMAP
118300
F7EF80
3870C0
3060C0
3060C0
3060C0
3060C0
3060C0
3060C0
3060C0
3060C0
FDFBF0
ENDCHAR

STARTCHAR n
ENCODING 110
SWIDTH 500 0
DWIDTH 13 0
BBX 13 12 0 0
BITMAP
1180
F7C0
38E0
3060
3060
3060
3060
3060
3060
3060
3060
FDF8
ENDCHAR

STARTCHAR o
ENCODING 111
SWIDTH 500 0
DWIDTH 13 0
BBX 11 12 1 0
BITMAP
1F00
3180
60C0
C0E0
C060
C060
C060
E060
E060
60C0
3080
1F00
ENDCHAR

STARTCHAR p
ENCODING 112
SWIDTH 500 0
DWIDTH 13 0
BBX 12 17 0 -5
BITMAP
3380
F7E0
38E0
3070
3030
3030
3030
3030
3030
3060
38C0
3780
3000
3000
3000
3000
FC00
ENDCHAR

STARTCHAR q
ENCODING 113
SWIDTH 500 0
DWIDTH 13 0
BBX 12 17 1 -5
BITMAP
1F40
31C0
60C0
40C0
C0C0
C0C0
C0C0
C0C0
E0C0
71C0
7EC0
1CC0
00C0
00C0
00C0
00C0
03F0
ENDCHAR

STARTCHAR r
ENCODING 114
SWIDTH 333 0
DWIDTH 8 0
BBX 8 12 0 0
BITMAP
13
F7
39
30
30
30
30
30
30
30
30
FC
ENDCHAR

STARTCHAR s
ENCODING 115
SWIDTH 389 0
DWIDTH 10 0
BBX 8 12 1 0
BITMAP
3A
C6
82
C2
E0
7C
1E
07
83
83
C6
FC
ENDCHAR

STARTCHAR t
ENCODING 116
SWIDTH 278 0
DWIDTH 7 0
BBX 7 16 0 0
BITMAP
10
10
10
30
FE
30
30
30
30
30
30
30
30
30
3A
1C
ENDCHAR

STARTCHAR u
ENCODING 117
SWIDTH 500 0
DWIDTH 13 0
BBX 13 12 0 0
BITMAP
F1E0
3060
3060
3060
3060
3060
3060
3060
3060
38A0
1F78
0C40
ENDCHAR

STARTCHAR v
ENCODING 118
SWIDTH 500 0
DWIDTH 13 0
BBX 12 12 0 0
BITMAP
F8F0
7060
3040
3040
1880
1880
0D00
0D00
0E00
0600
0600
0200
ENDCHAR

STARTCHAR w
ENCODING 119
SWIDTH 722 0
DWIDTH 18 0
BBX 18 12 0 0
BITMAP
FBF3C0
30C180
30E100
306100
18E200
18B200
0D3200
0D3400
0E1800
061800
060800
040800
ENDCHAR

STARTCHAR x
ENCODING 120
SWIDTH 500 0
DWIDTH 13 0
BBX 12 12 0 0
BITMAP
F9E0
3880
1980
1D00
0E00
0600
0F00
0B00
1180
21C0
60E0
F1F0
ENDCHAR

STARTCHAR y
ENCODING 121
SWIDTH 500 0
DWIDTH 13 0
BBX 12 17 1 -5
BITMAP
F8F0
7060
3040
3040
1880
1880
0D00
0D00
0F00
0600
0200
0400
0400
0C00
6800
F000
6000
ENDCHAR

STARTCHAR z
ENCODING 122
SWIDTH 444 0
DWIDTH 11 0
BBX 11 12 0 0
BITMAP
7FE0
41C0
4180
0380
0700
0600
0C00
1C00
1820
3020
6040
FFC0
ENDCHAR

STARTCHAR braceleft
ENCODING 123
SWIDTH 480 0
DWIDTH 12 0
BBX 7 22 2 -5
BITMAP
0E
10
10
30
30
10
18
18
18
10
E0
60
10
18
18
18
38
30
30
10
10
0E
ENDCHAR

STARTCHAR bar
ENCODING 124
SWIDTH 200 0
DWIDTH 5 0
BBX 1 22 2 -5
BITMAP
80
80
80
80
80
80
80
80
80
80
80
80
80
80
80
80
80
80
80
80
80
80
ENDCHAR

STARTCHAR braceright
ENCODING 125
SWIDTH 480 0
DWIDTH 12 0
BBX 7 22 3 -5
BITMAP
E0
10
18
18
18
38
38
30
30
18
06
0C
10
30
30
30
10
18
18
10
10
E0
ENDCHAR

STARTCHAR asciitilde
ENCODING 126
SWIDTH 541 0
DWIDTH 14 0
BBX 12 4 1 6
BITMAP
7810
FE10
87E0
81C0
ENDCHAR

STARTCHAR space
ENCODING 160
SWIDTH 250 0
DWIDTH 7 0
BBX 0 0 0 0
BITMAP
ENDCHAR

STARTCHAR Aogonek
ENCODING 161
SWIDTH 722 0
DWIDTH 18 0
BBX 18 21 1 -4
BITMAP
008000
018000
01C000
01C000
02C000
02E000
046000
047000
083000
083800
1FF800
101800
101C00
200C00
200E00
600E00
F81780
000800
000800
000C00
0007C0
ENDCHAR

STARTCHAR afii240
ENCODING 162
SWIDTH 500 0
DWIDTH 13 0
BBX 13 12 0 0
BITMAP
FDF0
30C0
3100
3200
3400
3600
3600
3300
3380
31C0
30E0
FDF8
ENDCHAR

STARTCHAR Rcommaaccent
ENCODING 163
SWIDTH 667 0
DWIDTH 17 0
BBX 17 22 0 -5
BITMAP
FFE000
187800
183C00
181C00
181C00
181C00
183800
187000
1FC000
19C000
18E000
187000
183800
181800
181C00
180E00
FF0780
000000
01C000
01C000
004000
018000
ENDCHAR

STARTCHAR currency
ENCODING 164
SWIDTH 500 0
DWIDTH 13 0
BBX 12 13 1 2
BITMAP
8010
9F20
70C0
4040
C020
8020
8020
8020
C060
4040
71C0
9F20
8010
ENDCHAR

STARTCHAR Itilde
ENCODING 165
SWIDTH 333 0
DWIDTH 8 0
BBX 8 22 0 0
BITMAP
61
79
9E
8E
00
FF
18
18
18
18
18
18
18
18
18
18
18
18
18
18
18
FF
ENDCHAR

STARTCHAR Lcommaaccent
ENCODING 166
SWIDTH 611 0
DWIDTH 15 0
BBX 15 22 0 -5
BITMAP
FF00
1800
1800
1800
1800
1800
1800
1800
1800
1800
1800
1800
1802
1802
1804
180C
FFF8
0000
0380
0380
0080
0300
ENDCHAR

STARTCHAR section
ENCODING 167
SWIDTH 500 0
DWIDTH 13 0
BBX 8 22 2 -5
BITMAP
18
24
46
46
60
30
18
7C
4E
83
83
C1
E1
72
3A
1C
0E
06
C2
C2
44
38
ENDCHAR

STARTCHAR hungarumlaut
ENCODING 168
SWIDTH 333 0
DWIDTH 8 0
BBX 7 4 1 14
BITMAP
66
4C
CC
88
ENDCHAR

STARTCHAR Scaron
ENCODING 169
SWIDTH 556 0
DWIDTH 14 0
BBX 11 22 2 0
BITMAP
2080
1100
1B00
0E00
0000
1E40
61C0
C0C0
C040
C040
E040
7800
3E00
1F80
07C0
01E0
80E0
8060
8060
C040
E0C0
9F00
ENDCHAR

STARTCHAR Emacron
ENCODING 170
SWIDTH 611 0
DWIDTH 15 0
BBX 14 20 1 0
BITMAP
1FC0
1FC0
0000
FFF0
3010
3010
3010
3000
3020
3020
3020
3FE0
3020
3020
3000
3000
3004
3008
3018
FFF0
ENDCHAR

STARTCHAR Gcommaaccent
ENCODING 171
SWIDTH 722 0
DWIDTH 18 0
BBX 17 23 1 -5
BITMAP
03F200
0E0E00
180600
380200
700200
700000
600000
E00000
E01F80
E00600
E00600
E00600
700600
700600
380600
1C0600
0E0E00
01F800
000000
00E000
00E000
002000
00C000
ENDCHAR

STARTCHAR afii237
ENCODING 172
SWIDTH 611 0
DWIDTH 15 0
BBX 14 17 1 0
BITMAP
FFFC
C304
8304
8304
0300
0300
0300
FFFC
0300
0300
0300
0300
0300
0300
0300
0300
0FE0
ENDCHAR

STARTCHAR hyphen
ENCODING 173
SWIDTH 333 0
DWIDTH 8 0
BBX 6 2 1 5
BITMAP
FC
FC
ENDCHAR

STARTCHAR Zcaron
ENCODING 174
SWIDTH 611 0
DWIDTH 15 0
BBX 15 22 0 0
BITMAP
0C20
0640
03C0
0180
0000
3FFC
2018
2038
2070
00E0
00E0
01C0
0380
0380
0700
0E00
0C00
1C02
3802
3004
600C
FFFC
ENDCHAR

STARTCHAR macron
ENCODING 175
SWIDTH 333 0
DWIDTH 8 0
BBX 8 2 0 14
BITMAP
FF
FF
ENDCHAR

STARTCHAR degree
ENCODING 176
SWIDTH 400 0
DWIDTH 10 0
BBX 8 7 1 10
BITMAP
3C
42
81
81
81
42
3C
ENDCHAR

STARTCHAR aogonek
ENCODING 177
SWIDTH 444 0
DWIDTH 11 0
BBX 11 16 1 -4
BITMAP
3C00
6700
C300
C300
0700
1B00
2300
4300
C300
C300
E5C0
7980
0200
0200
0300
01E0
ENDCHAR

STARTCHAR ogonek
ENCODING 178
SWIDTH 333 0
DWIDTH 8 0
BBX 6 5 2 -4
BITMAP
40
80
80
C0
7C
ENDCHAR

STARTCHAR rcommaaccent
ENCODING 179
SWIDTH 333 0
DWIDTH 8 0
BBX 8 17 0 -5
BITMAP
13
F7
39
30
30
30
30
30
30
30
30
FC
00
38
38
08
30
ENDCHAR

STARTCHAR acute
ENCODING 180
SWIDTH 333 0
DWIDTH 8 0
BBX 4 4 3 14
BITMAP
70
60
C0
80
ENDCHAR

STARTCHAR itilde
ENCODING 181
SWIDTH 278 0
DWIDTH 7 0
BBX 8 17 0 0
BITMAP
61
F9
9E
84
00
08
78
18
18
18
18
18
18
18
18
18
7E
ENDCHAR

STARTCHAR lcommaaccent
ENCODING 182
SWIDTH 278 0
DWIDTH 7 0
BBX 6 23 0 -5
BITMAP
10
F0
30
30
30
30
30
30
30
30
30
30
30
30
30
30
30
FC
00
38
38
08
30
ENDCHAR

STARTCHAR caron
ENCODING 183
SWIDTH 333 0
DWIDTH 8 0
BBX 7 4 1 14
BITMAP
82
C4
78
38
ENDCHAR

STARTCHAR commaaccent
ENCODING 184
SWIDTH 333 0
DWIDTH 8 0
BBX 3 4 3 -5
BITMAP
E0
E0
20
C0
ENDCHAR

STARTCHAR scaron
ENCODING 185
SWIDTH 389 0
DWIDTH 10 0
BBX 8 17 1 0
BITMAP
C3
64
3C
38
00
3A
C6
82
C2
E0
7C
3E
0F
83
83
C2
BC
ENDCHAR

STARTCHAR emacron
ENCODING 186
SWIDTH 444 0
DWIDTH 11 0
BBX 9 17 1 0
BITMAP
7F80
7F80
0000
0000
0000
1E00
2300
4180
C180
FF80
C000
C000
C080
E080
7180
7F00
1E00
ENDCHAR

STARTCHAR gcommaaccent
ENCODING 187
SWIDTH 500 0
DWIDTH 13 0
BBX 11 22 1 -5
BITMAP
0600
0800
0E00
0600
0000
1E00
31E0
61C0
60C0
60C0
60C0
3180
1E00
2000
6000
7FC0
27E0
4020
C020
E040
7F80
1E00
ENDCHAR

STARTCHAR afii253
ENCODING 188
SWIDTH 278 0
DWIDTH 7 0
BBX 7 16 0 0
BITMAP
10
10
10
30
FE
30
30
30
FE
30
30
30
30
30
3E
1C
ENDCHAR

STARTCHAR afii238
ENCODING 189
SWIDTH 728 0
DWIDTH 18 0
BBX 17 17 0 0
BITMAP
F8F800
190C00
1A0600
1C0300
180300
180300
180380
180380
180380
180380
180380
180380
180300
182300
186200
187400
FE3800
ENDCHAR

STARTCHAR zcaron
ENCODING 190
SWIDTH 444 0
DWIDTH 11 0
BBX 11 18 0 0
BITMAP
2080
1100
1B00
0E00
0000
0000
7FE0
41C0
4180
0380
0700
0600
0C00
1C00
3840
3040
6040
FFC0
ENDCHAR

STARTCHAR afii254
ENCODING 191
SWIDTH 512 0
DWIDTH 13 0
BBX 11 17 0 -5
BITMAP
1180
F7C0
3860
3060
3060
3060
3060
3060
3060
3060
3060
FC60
0060
0060
0040
0E40
0780
ENDCHAR

STARTCHAR Amacron
ENCODING 192
SWIDTH 722 0
DWIDTH 18 0
BBX 18 20 0 0
BITMAP
07F800
07F800
000000
00C000
00C000
00C000
01E000
016000
027000
023000
063800
043800
001800
0FFC00
080C00
100E00
100600
300600
300700
F81FC0
ENDCHAR

STARTCHAR Aacute
ENCODING 193
SWIDTH 722 0
DWIDTH 18 0
BBX 18 22 0 0
BITMAP
007000
006000
00C000
008000
000000
004000
00C000
00C000
01E000
016000
037000
023000
023000
043800
001800
0FFC00
080C00
100E00
100600
300600
300700
F81FC0
ENDCHAR

STARTCHAR Acircumflex
ENCODING 194
SWIDTH 722 0
DWIDTH 18 0
BBX 18 22 0 0
BITMAP
00C000
01E000
012000
021000
000000
004000
00C000
00C000
01E000
016000
037000
023000
023000
043800
001800
0FFC00
080C00
100E00
100E00
300600
300700
F81FC0
ENDCHAR

STARTCHAR Atilde
ENCODING 195
SWIDTH 722 0
DWIDTH 18 0
BBX 18 21 0 0
BITMAP
030800
03C800
04F000
042000
004000
00C000
00C000
01E000
016000
037000
023000
023000
043800
001800
0FFC00
080C00
100E00
100E00
300600
300700
F81FC0
ENDCHAR

STARTCHAR Adieresis
ENCODING 196
SWIDTH 722 0
DWIDTH 18 0
BBX 17 21 1 0
BITMAP
022000
077000
022000
000000
008000
008000
01C000
01C000
034000
026000
026000
047000
043000
083800
0FF800
101800
101C00
300C00
200E00
600E00
F81F80
ENDCHAR

STARTCHAR Aring
ENCODING 197
SWIDTH 722 0
DWIDTH 18 0
BBX 17 23 1 0
BITMAP
01C000
022000
022000
022000
01C000
000000
008000
01C000
01C000
014000
02E000
026000
047000
043000
0C3000
081800
0FF800
101C00
100C00
200E00
200600
600F00
F81F80
ENDCHAR

STARTCHAR AE
ENCODING 198
SWIDTH 889 0
DWIDTH 22 0
BBX 23 17 -1 0
BITMAP
01FFF8
006808
005808
005808
009800
009810
011810
031810
021FF0
061810
07F810
0C1800
081800
181802
101804
301C0C
FC7FF8
ENDCHAR

STARTCHAR Iogonek
ENCODING 199
SWIDTH 333 0
DWIDTH 8 0
BBX 8 21 0 -4
BITMAP
FF
18
18
18
18
18
18
18
18
18
18
18
18
18
18
18
EF
10
10
18
0F
ENDCHAR

STARTCHAR Ccaron
ENCODING 200
SWIDTH 667 0
DWIDTH 17 0
BBX 15 22 1 0
BITMAP
0410
0220
03E0
01C0
0000
03E4
0C1C
1804
3006
7002
6002
E000
E000
E000
E000
E000
6000
7000
7002
3804
1E18
07E0
ENDCHAR

STARTCHAR Eacute
ENCODING 201
SWIDTH 611 0
DWIDTH 15 0
BBX 15 22 0 0
BITMAP
01C0
0180
0100
0200
0000
FFF8
1808
1808
1808
1800
1810
1810
1810
1FF0
1810
1810
1800
1800
1802
1804
180C
FFF8
ENDCHAR

STARTCHAR Eogonek
ENCODING 202
SWIDTH 611 0
DWIDTH 15 0
BBX 15 21 0 -4
BITMAP
FFF8
1808
1808
1808
1800
1810
1810
1810
1FF0
1810
1810
1800
1800
1802
1804
180C
FFF8
0040
0040
0060
003C
ENDCHAR

STARTCHAR Edieresis
ENCODING 203
SWIDTH 611 0
DWIDTH 15 0
BBX 14 21 0 0
BITMAP
0440
0EE0
0440
0000
FFF8
1808
1808
1808
1800
1810
1810
1830
1FF0
1830
1810
1800
1800
1804
1804
1808
FFF8
ENDCHAR

STARTCHAR Edotaccent
ENCODING 204
SWIDTH 611 0
DWIDTH 15 0
BBX 14 21 1 0
BITMAP
0200
0700
0200
0000
FFF0
3010
3010
3010
3000
3020
3020
3060
3FE0
3020
3020
3000
3000
3004
3008
3018
FFF0
ENDCHAR

STARTCHAR Iacute
ENCODING 205
SWIDTH 333 0
DWIDTH 8 0
BBX 8 22 0 0
BITMAP
0E
08
18
10
00
FF
18
18
18
18
18
18
18
18
18
18
18
18
18
18
18
FF
ENDCHAR

STARTCHAR Icircumflex
ENCODING 206
SWIDTH 333 0
DWIDTH 8 0
BBX 8 22 0 0
BITMAP
18
34
46
42
00
FF
18
18
18
18
18
18
18
18
18
18
18
18
18
18
18
FF
ENDCHAR

STARTCHAR Imacron
ENCODING 207
SWIDTH 333 0
DWIDTH 8 0
BBX 8 20 0 0
BITMAP
FF
FF
00
7F
18
18
18
18
18
18
18
18
18
18
18
18
18
18
18
7F
ENDCHAR

STARTCHAR Eth
ENCODING 208
SWIDTH 722 0
DWIDTH 18 0
BBX 17 17 0 0
BITMAP
FFE000
183C00
180E00
180700
180700
180300
180380
180380
FFC380
180380
180380
180380
180700
180700
180E00
183C00
FFE000
ENDCHAR

STARTCHAR Ncommaaccent
ENCODING 209
SWIDTH 722 0
DWIDTH 18 0
BBX 17 22 0 -5
BITMAP
F00F80
380200
1C0200
1E0200
170200
170200
138200
11C200
10E200
107200
107200
103A00
101E00
100E00
100600
100600
7C0200
000000
01C000
01C000
004000
018000
ENDCHAR

STARTCHAR Omacron
ENCODING 210
SWIDTH 722 0
DWIDTH 18 0
BBX 16 20 1 0
BITMAP
0FF0
0FF0
0000
07E0
1C38
381C
300E
6006
6006
E007
E007
E007
E007
E007
6006
7006
300C
381C
0C38
03E0
ENDCHAR

STARTCHAR Kcommaaccent
ENCODING 211
SWIDTH 722 0
DWIDTH 18 0
BBX 18 22 0 -5
BITMAP
FF3F00
180C00
181800
183000
186000
18C000
198000
1B0000
1B0000
1B8000
19C000
18F000
187800
183C00
181E00
180F00
FF3FC0
000000
01C000
01C000
004000
018000
ENDCHAR

STARTCHAR Ocircumflex
ENCODING 212
SWIDTH 722 0
DWIDTH 18 0
BBX 16 22 1 0
BITMAP
0180
03C0
0240
0420
0000
07E0
1C38
381C
300E
6006
6006
E007
E007
E007
E007
E007
6006
7006
300C
381C
1C30
07C0
ENDCHAR

STARTCHAR Otilde
ENCODING 213
SWIDTH 722 0
DWIDTH 18 0
BBX 16 22 1 0
BITMAP
0610
0790
09E0
08C0
0000
07E0
1C38
381C
300E
6006
6006
E007
E007
E007
E007
E007
6006
7006
300C
381C
1C30
07C0
ENDCHAR

STARTCHAR Odieresis
ENCODING 214
SWIDTH 722 0
DWIDTH 18 0
BBX 17 21 1 0
BITMAP
022000
077000
022000
000000
03E000
0C1800
180E00
300600
700700
600300
E00380
E00380
E00380
E00380
E00380
600300
700700
300600
180C00
0C1800
03E000
ENDCHAR

STARTCHAR multiply
ENCODING 215
SWIDTH 564 0
DWIDTH 14 0
BBX 10 10 2 3
BITMAP
C040
6080
3100
1A00
0C00
0A00
3300
6180
C0C0
4040
ENDCHAR

STARTCHAR Oslash
ENCODING 216
SWIDTH 722 0
DWIDTH 18 0
BBX 16 17 1 0
BITMAP
07E2
1C3C
381C
301C
6016
6026
E047
E087
E187
E107
E207
6406
7806
380C
381C
2C38
47E0
ENDCHAR

STARTCHAR Uogonek
ENCODING 217
SWIDTH 722 0
DWIDTH 18 0
BBX 18 21 0 -4
BITMAP
FF0FC0
180100
180100
180100
180100
180100
180100
180100
180100
180100
180100
180100
180100
1C0300
0C0200
060C00
03F800
004000
004000
006000
003E00
ENDCHAR

STARTCHAR Uacute
ENCODING 218
SWIDTH 722 0
DWIDTH 18 0
BBX 18 22 0 0
BITMAP
007000
006000
004000
008000
000000
FF07C0
180100
180100
180100
180100
180100
180100
180100
180100
180100
180100
180100
180100
1C0300
0C0200
060C00
03F800
ENDCHAR

STARTCHAR Ucircumflex
ENCODING 219
SWIDTH 722 0
DWIDTH 18 0
BBX 18 22 0 0
BITMAP
007000
00D000
019800
010400
000000
FF07C0
180100
180100
180100
180100
180100
180100
180100
180100
180100
180100
180100
180100
1C0300
0C0200
060C00
03F800
ENDCHAR

STARTCHAR Udieresis
ENCODING 220
SWIDTH 722 0
DWIDTH 18 0
BBX 17 21 0 0
BITMAP
011000
03B800
011000
000000
FE0F80
180200
180200
180200
180200
180200
180200
180200
180200
180200
180200
180200
180200
1C0200
0C0400
0E1800
03F000
ENDCHAR

STARTCHAR Utilde
ENCODING 221
SWIDTH 722 0
DWIDTH 18 0
BBX 18 22 0 0
BITMAP
018800
03E800
02F800
043000
000000
FF07C0
180100
180100
180100
180100
180100
180100
180100
180100
180100
180100
180100
180100
1C0300
0C0200
060C00
03F800
ENDCHAR

STARTCHAR Umacron
ENCODING 222
SWIDTH 722 0
DWIDTH 18 0
BBX 17 20 1 0
BITMAP
07F800
07F800
000000
FE0F80
300200
300200
300200
300200
300200
300200
300200
300200
300200
300200
300200
300200
380600
180400
0C1800
07F000
ENDCHAR

STARTCHAR germandbls
ENCODING 223
SWIDTH 500 0
DWIDTH 13 0
BBX 12 17 0 0
BITMAP
0F80
18C0
3060
3060
3060
3060
3080
33C0
30E0
3070
3070
3030
3030
3030
3620
3660
F380
ENDCHAR

STARTCHAR amacron
ENCODING 224
SWIDTH 444 0
DWIDTH 11 0
BBX 10 17 1 0
BITMAP
7F80
7F80
0000
0000
0000
3C00
6700
C300
C300
0700
1B00
2300
4300
C300
C300
E5C0
7B80
ENDCHAR

STARTCHAR aacute
ENCODING 225
SWIDTH 444 0
DWIDTH 11 0
BBX 10 17 1 0
BITMAP
0E00
0C00
0800
0800
0000
1E00
6300
6300
6300
0700
1B00
2300
6300
C300
C300
65C0
7B80
ENDCHAR

STARTCHAR acircumflex
ENCODING 226
SWIDTH 444 0
DWIDTH 11 0
BBX 10 17 1 0
BITMAP
1C00
1600
2200
2100
0000
1E00
6300
6300
6300
0700
1B00
2300
6300
C300
C300
65C0
7B80
ENDCHAR

STARTCHAR atilde
ENCODING 227
SWIDTH 444 0
DWIDTH 11 0
BBX 10 17 1 0
BITMAP
3100
7D00
4F00
4200
0000
1E00
6300
6300
6300
0700
1B00
2300
6300
C300
C300
65C0
7B80
ENDCHAR

STARTCHAR adieresis
ENCODING 228
SWIDTH 444 0
DWIDTH 11 0
BBX 11 17 0 0
BITMAP
3100
3380
3100
0000
0000
1E00
6380
6180
6180
0380
0D80
3180
6180
C180
C180
66E0
79C0
ENDCHAR

STARTCHAR aring
ENCODING 229
SWIDTH 444 0
DWIDTH 11 0
BBX 11 17 0 0
BITMAP
0E00
1100
1100
0E00
0000
1E00
6380
6180
6180
0380
0D80
3180
6180
C180
E180
76E0
79C0
ENDCHAR

STARTCHAR ae
ENCODING 230
SWIDTH 667 0
DWIDTH 17 0
BBX 15 12 1 0
BITMAP
3C78
678C
C30E
C306
03FE
0F00
3300
4300
C302
C384
E5F8
78F0
ENDCHAR

STARTCHAR iogonek
ENCODING 231
SWIDTH 278 0
DWIDTH 7 0
BBX 8 21 1 -4
BITMAP
30
30
10
00
00
00
30
B0
30
30
30
30
30
30
30
30
DC
20
20
30
1F
ENDCHAR

STARTCHAR ccaron
ENCODING 232
SWIDTH 444 0
DWIDTH 11 0
BBX 9 17 1 0
BITMAP
6100
3200
1E00
1C00
0000
1E00
2380
6180
C180
C000
C000
C000
E080
E080
7180
3F00
1E00
ENDCHAR

STARTCHAR eacute
ENCODING 233
SWIDTH 444 0
DWIDTH 11 0
BBX 9 17 1 0
BITMAP
0E00
0C00
0800
1000
0000
1E00
2300
4180
C180
FF80
C000
C000
C080
E080
7180
7F00
1E00
ENDCHAR

STARTCHAR eogonek
ENCODING 234
SWIDTH 444 0
DWIDTH 11 0
BBX 10 16 1 -4
BITMAP
1E00
2380
4180
41C0
FFC0
C000
C000
C040
E040
7080
3F00
1E00
0800
0800
0C00
07C0
ENDCHAR

STARTCHAR edieresis
ENCODING 235
SWIDTH 444 0
DWIDTH 11 0
BBX 9 17 1 0
BITMAP
2200
7700
2200
0000
0000
1E00
2300
4380
C180
FF80
C000
C000
C080
E080
7100
7F00
1E00
ENDCHAR

STARTCHAR edotaccent
ENCODING 236
SWIDTH 444 0
DWIDTH 11 0
BBX 9 17 1 0
BITMAP
0800
1C00
0800
0000
0000
1E00
6300
4380
C180
FF80
C000
C000
C080
E080
7180
7F00
1E00
ENDCHAR

STARTCHAR iacute
ENCODING 237
SWIDTH 278 0
DWIDTH 7 0
BBX 6 17 1 0
BITMAP
1C
30
20
20
00
10
F0
30
30
30
30
30
30
30
30
30
FC
ENDCHAR

STARTCHAR icircumflex
ENCODING 238
SWIDTH 278 0
DWIDTH 7 0
BBX 7 17 0 0
BITMAP
38
2C
46
82
00
08
78
18
18
18
18
18
18
18
18
18
7E
ENDCHAR

STARTCHAR imacron
ENCODING 239
SWIDTH 278 0
DWIDTH 7 0
BBX 8 17 0 0
BITMAP
FF
FF
00
00
00
08
78
18
18
18
18
18
18
18
18
18
7E
ENDCHAR

STARTCHAR dcroat
ENCODING 240
SWIDTH 500 0
DWIDTH 13 0
BBX 12 17 0 0
BITMAP
03C0
01C0
00C0
0FF0
00C0
0EC0
31C0
60C0
40C0
C0C0
C0C0
C0C0
C0C0
E0C0
60C0
79F0
3EC0
ENDCHAR

STARTCHAR ncommaaccent
ENCODING 241
SWIDTH 500 0
DWIDTH 13 0
BBX 13 17 0 -5
BITMAP
1180
F7C0
3860
3060
3060
3060
3060
3060
3060
3060
3060
FDF8
0000
0700
0700
0100
0600
ENDCHAR

STARTCHAR omacron
ENCODING 242
SWIDTH 500 0
DWIDTH 13 0
BBX 11 17 1 0
BITMAP
7FC0
7FC0
0000
0000
0000
1F00
2180
60C0
C0E0
C060
C060
C060
E060
E060
60C0
3180
1F00
ENDCHAR

STARTCHAR kcommaaccent
ENCODING 243
SWIDTH 500 0
DWIDTH 13 0
BBX 13 23 0 -5
BITMAP
3000
F000
3000
3000
3000
3000
31F0
3080
3100
3200
3400
3600
3600
3300
3380
31C0
30E0
FDF8
0000
0700
0700
0100
0600
ENDCHAR

STARTCHAR ocircumflex
ENCODING 244
SWIDTH 500 0
DWIDTH 13 0
BBX 11 17 1 0
BITMAP
0E00
1B00
1100
2080
0000
1F00
2180
60C0
C0E0
C060
C060
C060
E060
E060
60C0
3180
1F00
ENDCHAR

STARTCHAR otilde
ENCODING 245
SWIDTH 500 0
DWIDTH 13 0
BBX 11 17 1 0
BITMAP
1840
3E40
2F80
4100
0000
1F00
2180
60C0
C0E0
C060
C060
C060
E060
E060
60C0
3180
1F00
ENDCHAR

STARTCHAR odieresis
ENCODING 246
SWIDTH 500 0
DWIDTH 13 0
BBX 11 17 1 0
BITMAP
1100
3B80
1100
0000
0000
1F00
2180
60C0
C0E0
C060
C060
C060
E060
E060
60C0
3180
1F00
ENDCHAR

STARTCHAR divide
ENCODING 247
SWIDTH 564 0
DWIDTH 14 0
BBX 13 9 1 4
BITMAP
0600
0600
0000
0000
FFF8
0000
0000
0600
0600
ENDCHAR

STARTCHAR oslash
ENCODING 248
SWIDTH 500 0
DWIDTH 13 0
BBX 12 12 1 0
BITMAP
1F30
31C0
60C0
C1E0
C260
C660
CC60
E860
F060
60C0
7080
9F00
ENDCHAR

STARTCHAR uogonek
ENCODING 249
SWIDTH 500 0
DWIDTH 13 0
BBX 13 16 0 -4
BITMAP
F3C0
30C0
30C0
30C0
30C0
30C0
30C0
30C0
30C0
3140
1EF0
0CC0
0080
0080
00C0
0078
ENDCHAR

STARTCHAR uacute
ENCODING 250
SWIDTH 500 0
DWIDTH 13 0
BBX 13 18 0 0
BITMAP
0380
0300
0600
0400
0400
0000
F1E0
3060
3060
3060
3060
3060
3060
3060
3060
38A0
1F78
0C40
ENDCHAR

STARTCHAR ucircumflex
ENCODING 251
SWIDTH 500 0
DWIDTH 13 0
BBX 13 17 0 0
BITMAP
0700
0D80
08C0
1040
0000
F1E0
3060
3060
3060
3060
3060
3060
3060
3060
38A0
1F78
0C40
ENDCHAR

STARTCHAR udieresis
ENCODING 252
SWIDTH 500 0
DWIDTH 13 0
BBX 13 17 0 0
BITMAP
0880
1DC0
0880
0000
0000
F1E0
3060
3060
3060
3060
3060
3060
3060
3060
38A0
1F78
0C40
ENDCHAR

STARTCHAR utilde
ENCODING 253
SWIDTH 500 0
DWIDTH 13 0
BBX 13 17 0 0
BITMAP
0C20
1F20
17C0
2100
0000
F1E0
3060
3060
3060
3060
3060
3060
3060
3060
38A0
1F78
0C40
ENDCHAR

STARTCHAR umacron
ENCODING 254
SWIDTH 500 0
DWIDTH 13 0
BBX 13 16 0 0
BITMAP
3FC0
3FC0
0000
0000
F1E0
3060
3060
3060
3060
3060
3060
3060
3060
38A0
1F78
0C40
ENDCHAR

STARTCHAR dotaccent
ENCODING 255
SWIDTH 333 0
DWIDTH 8 0
BBX 3 3 3 14
BITMAP
40
E0
40
ENDCHAR
ENDFONT
